<svg width="521.5549926757812px" height="218.72000732421876px" xmlns="http://www.w3.org/2000/svg" viewBox="-10.777496337890625 -34.36000366210938 521.5549926757812 218.72000732421876" style="background: rgb(234, 234, 234);" preserveAspectRatio="xMidYMid"><defs><linearGradient id="editing-shiny-gradient" x1="0.1403300998306744" x2="0.8596699001693255" y1="0.15267081477050137" y2="0.8473291852294986" gradientUnits="objectBoundingBox"><stop offset="0.0" stop-color="#000000"></stop><stop offset="0.5" stop-color="#697b8a"></stop><stop offset="1.0" stop-color="#080808"></stop></linearGradient><linearGradient id="editing-shiny-gradient2" x1="0" x2="0" y1="0" y2="1"><stop offset="0.2" stop-color="#fff" stop-opacity="0.8"></stop><stop offset="0.8" stop-color="#fff" stop-opacity="0"></stop></linearGradient><filter id="editing-shiny2" x="-100%" y="-100%" width="300%" height="300%"><feMorphology operator="erode" radius="2"></feMorphology></filter><filter id="editing-shiny" x="-100%" y="-100%" width="300%" height="300%"><feFlood flood-color="#fff" result="flood"></feFlood><feConvolveMatrix in="SourceGraphic" result="conv" order="8,8" divisor="1" kernelMatrix="0 0 0 0 0 0 0 0 0 0 0 1 1 0 0 0 0 0 0 1 1 0 0 0 0 0 1 0 0 1 0 0 0 0 1 0 0 1 0 0 0 1 0 0 0 0 1 0 0 1 1 0 0 1 1 0 0 0 0 1 1 0 0 0 "></feConvolveMatrix><feOffset dx="0" dy="4" in="conv" result="offset"></feOffset><feComposite operator="in" in="flood" in2="offset" result="comp"></feComposite><feGaussianBlur in="offset" stdDeviation="3" result="shadow"></feGaussianBlur><feColorMatrix in="shadow" type="matrix" values="0.7 0 0 0 0  0 0.7 0 0 0  0 0 0.7 0 0  0 0 0 0.3 0" result="dark-shadow"></feColorMatrix><feOffset dx="0" dy="4" in="dark-shadow" result="offset-shadow"></feOffset><feOffset dx="0" dy="2" in="conv" result="offset-2"></feOffset><feComposite operator="out" in="offset" in2="offset-2" result="edge-diff"></feComposite><feGaussianBlur in="edge-diff" stdDeviation="1" result="edge-blur"></feGaussianBlur><feColorMatrix in="edge-blur" result="edge-shadow" type="matrix" values="0 0 0 0 0  0 0 0 0 0  0 0 0 0 0  0 0 0 0.5 0"></feColorMatrix><feComposite operator="in" in="edge-shadow" in2="offset" result="edge-shadow-in"></feComposite><feOffset dx="0" dy="1" in="edge-shadow-in" result="edge-shadow-final"></feOffset><feMerge result="out"><feMergeNode in="offset-shadow"></feMergeNode><feMergeNode in="comp"></feMergeNode><feMergeNode in="edge-shadow-final"></feMergeNode><feMergeNode in="SourceGraphic"></feMergeNode></feMerge></filter></defs><g filter="url(#editing-shiny)"><g transform="translate(65.99502277374268, 111.04000008106232)"><path d="M25.35 0.78L25.35 0.78Q17.55 0.78 12.99-2.18L12.99-2.18L12.99-2.18Q8.42-5.15 6.43-11.19L6.43-11.19L6.43-11.19Q4.45-17.24 4.45-26.99L4.45-26.99L4.45-26.99Q4.45-36.66 6.43-42.74L6.43-42.74L6.43-42.74Q8.42-48.83 12.95-51.79L12.95-51.79L12.95-51.79Q17.47-54.76 25.19-54.76L25.19-54.76L25.19-54.76Q32.21-54.76 40.25-53.20L40.25-53.20L42.90-52.73L42.67-47.74L42.67-47.74Q32.99-49.37 25.90-49.37L25.90-49.37L25.90-49.37Q19.97-49.37 16.65-47.15L16.65-47.15L16.65-47.15Q13.34-44.93 12.01-40.13L12.01-40.13L12.01-40.13Q10.69-35.33 10.69-26.99L10.69-26.99L10.69-26.99Q10.69-18.64 12.01-13.85L12.01-13.85L12.01-13.85Q13.34-9.05 16.61-6.79L16.61-6.79L16.61-6.79Q19.89-4.52 25.82-4.52L25.82-4.52L25.82-4.52Q31.04-4.52 36.97-5.62L36.97-5.62L36.97-22.23L28.00-22.23L28.00-27.61L42.90-27.61L42.90-1.09L42.90-1.09Q33.07 0.78 25.35 0.78L25.35 0.78ZM73.87 0.78L73.87 0.78Q65.83 0.78 61.15-2.11L61.15-2.11L61.15-2.11Q56.47-4.99 54.48-10.96L54.48-10.96L54.48-10.96Q52.49-16.93 52.49-26.75L52.49-26.75L52.49-26.75Q52.49-36.50 54.52-42.63L54.52-42.63L54.52-42.63Q56.55-48.75 61.23-51.75L61.23-51.75L61.23-51.75Q65.91-54.76 73.79-54.76L73.79-54.76L73.79-54.76Q81.67-54.76 86.35-51.75L86.35-51.75L86.35-51.75Q91.03-48.75 93.09-42.63L93.09-42.63L93.09-42.63Q95.16-36.50 95.16-26.60L95.16-26.60L95.16-26.60Q95.16-16.69 93.17-10.76L93.17-10.76L93.17-10.76Q91.18-4.84 86.54-2.03L86.54-2.03L86.54-2.03Q81.90 0.78 73.87 0.78L73.87 0.78ZM73.87-4.52L73.87-4.52Q79.79-4.52 83.03-6.71L83.03-6.71L83.03-6.71Q86.27-8.89 87.59-13.61L87.59-13.61L87.59-13.61Q88.92-18.33 88.92-26.60L88.92-26.60L88.92-26.60Q88.92-34.87 87.56-39.78L87.56-39.78L87.56-39.78Q86.19-44.69 82.91-47.07L82.91-47.07L82.91-47.07Q79.64-49.45 73.79-49.45L73.79-49.45L73.79-49.45Q67.94-49.45 64.66-47.11L64.66-47.11L64.66-47.11Q61.39-44.77 60.02-39.86L60.02-39.86L60.02-39.86Q58.66-34.94 58.66-26.75L58.66-26.75L58.66-26.75Q58.66-18.56 59.98-13.77L59.98-13.77L59.98-13.77Q61.31-8.97 64.62-6.75L64.62-6.75L64.62-6.75Q67.94-4.52 73.87-4.52L73.87-4.52ZM117.55 0.86L117.55 0.86Q113.57 0.86 111.34-0.43L111.34-0.43L111.34-0.43Q109.12-1.72 108.15-4.80L108.15-4.80L108.15-4.80Q107.17-7.88 107.17-13.42L107.17-13.42L107.17-33.93L101.63-33.93L101.63-39L107.17-39L107.17-50.93L112.94-50.93L112.94-39L125.35-39L125.35-33.93L112.94-33.93L112.94-15.29L112.94-15.29Q112.94-10.92 113.26-8.78L113.26-8.78L113.26-8.78Q113.57-6.63 114.78-5.50L114.78-5.50L114.78-5.50Q115.99-4.37 118.56-4.37L118.56-4.37L125.50-4.84L125.89 0L125.89 0Q120.35 0.86 117.55 0.86L117.55 0.86ZM132.52 0L132.52-39L138.29-39L138.29-33.70L138.29-33.70Q145.00-38.30 152.57-39.86L152.57-39.86L152.57-33.93L152.57-33.93Q149.53-33.31 145.98-32.02L145.98-32.02L145.98-32.02Q142.43-30.73 140.32-29.64L140.32-29.64L138.37-28.63L138.37 0L132.52 0ZM159.51 0L159.51 0ZM159.51 0L159.51-39L165.28-39L165.28 0L159.51 0ZM159.51-47.81L159.51-54.60L165.28-54.60L165.28-47.81L159.51-47.81ZM176.51 17.32L176.51-39L182.29-39L182.29-36.19L182.29-36.19Q185.33-37.99 188.18-38.88L188.18-38.88L188.18-38.88Q191.02-39.78 194.22-39.78L194.22-39.78L194.22-39.78Q201.47-39.78 204.79-34.98L204.79-34.98L204.79-34.98Q208.10-30.19 208.10-19.73L208.10-19.73L208.10-19.73Q208.10-12.32 206.39-7.84L206.39-7.84L206.39-7.84Q204.67-3.35 200.93-1.29L200.93-1.29L200.93-1.29Q197.18 0.78 190.87 0.78L190.87 0.78L190.87 0.78Q186.50 0.78 182.36-0.08L182.36-0.08L182.36 17.32L176.51 17.32ZM190.94-4.29L190.94-4.29Q197.03-4.29 199.60-7.88L199.60-7.88L199.60-7.88Q202.18-11.47 202.18-19.50L202.18-19.50L202.18-19.50Q202.18-27.46 199.95-31.00L199.95-31.00L199.95-31.00Q197.73-34.55 193.21-34.55L193.21-34.55L193.21-34.55Q190.94-34.55 188.33-33.81L188.33-33.81L188.33-33.81Q185.72-33.07 183.85-32.21L183.85-32.21L182.36-31.43L182.36-5.15L182.36-5.15Q188.14-4.29 190.94-4.29L190.94-4.29ZM217.23 0L217.23-8.89L223.63-8.89L223.63 0L217.23 0ZM248.51 0.78L248.51 0.78Q242.66 0.78 239.23-1.29L239.23-1.29L239.23-1.29Q235.79-3.35 234.31-7.76L234.31-7.76L234.31-7.76Q232.83-12.17 232.83-19.50L232.83-19.50L232.83-19.50Q232.83-28.78 235.95-34.32L235.95-34.32L235.95-34.32Q239.07-39.86 248.04-39.86L248.04-39.86L248.04-39.86Q250.38-39.86 252.88-39.62L252.88-39.62L252.88-39.62Q255.37-39.39 259.66-38.61L259.66-38.61L259.43-33.85L259.43-33.85Q253.27-34.55 249.99-34.55L249.99-34.55L249.99-34.55Q245.54-34.55 243.16-33.19L243.16-33.19L243.16-33.19Q240.79-31.82 239.81-28.59L239.81-28.59L239.81-28.59Q238.84-25.35 238.84-19.34L238.84-19.34L238.84-19.34Q238.84-13.65 239.77-10.49L239.77-10.49L239.77-10.49Q240.71-7.33 243.16-5.89L243.16-5.89L243.16-5.89Q245.62-4.45 250.30-4.45L250.30-4.45L259.51-5.15L259.74-0.31L259.74-0.31Q252.25 0.78 248.51 0.78L248.51 0.78ZM282.98 0.78L282.98 0.78Q276.74 0.78 273.08-1.29L273.08-1.29L273.08-1.29Q269.41-3.35 267.85-7.72L267.85-7.72L267.85-7.72Q266.29-12.09 266.29-19.27L266.29-19.27L266.29-19.27Q266.29-26.68 267.93-31.16L267.93-31.16L267.93-31.16Q269.57-35.65 273.23-37.71L273.23-37.71L273.23-37.71Q276.90-39.78 282.98-39.78L282.98-39.78L282.98-39.78Q289.15-39.78 292.77-37.67L292.77-37.67L292.77-37.67Q296.40-35.57 298.04-31.12L298.04-31.12L298.04-31.12Q299.68-26.68 299.68-19.27L299.68-19.27L299.68-19.27Q299.68-12.09 298.12-7.72L298.12-7.72L298.12-7.72Q296.56-3.35 292.93-1.29L292.93-1.29L292.93-1.29Q289.30 0.78 282.98 0.78L282.98 0.78ZM283.06-4.29L283.06-4.29Q287.35-4.29 289.61-5.73L289.61-5.73L289.61-5.73Q291.88-7.18 292.77-10.34L292.77-10.34L292.77-10.34Q293.67-13.49 293.67-19.27L293.67-19.27L293.67-19.27Q293.67-25.35 292.73-28.63L292.73-28.63L292.73-28.63Q291.80-31.90 289.54-33.31L289.54-33.31L289.54-33.31Q287.27-34.71 283.06-34.71L283.06-34.71L283.06-34.71Q278.85-34.71 276.55-33.31L276.55-33.31L276.55-33.31Q274.25-31.90 273.27-28.63L273.27-28.63L273.27-28.63Q272.30-25.35 272.30-19.27L272.30-19.27L272.30-19.27Q272.30-13.57 273.19-10.37L273.19-10.37L273.19-10.37Q274.09-7.18 276.39-5.73L276.39-5.73L276.39-5.73Q278.69-4.29 283.06-4.29L283.06-4.29ZM309.19 0L309.19-39L314.96-39L314.96-36.27L314.96-36.27Q320.81-39.78 326.66-39.78L326.66-39.78L326.66-39.78Q329.86-39.78 332.44-38.80L332.44-38.80L332.44-38.80Q335.01-37.83 336.49-35.80L336.49-35.80L336.49-35.80Q339.38-37.52 343.28-38.65L343.28-38.65L343.28-38.65Q347.18-39.78 351.23-39.78L351.23-39.78L351.23-39.78Q355.99-39.78 358.64-37.87L358.64-37.87L358.64-37.87Q361.30-35.96 362.43-31.82L362.43-31.82L362.43-31.82Q363.56-27.69 363.56-20.59L363.56-20.59L363.56 0L357.71 0L357.71-20.44L357.71-20.44Q357.71-25.97 357.08-28.94L357.08-28.94L357.08-28.94Q356.46-31.90 354.78-33.23L354.78-33.23L354.78-33.23Q353.11-34.55 349.83-34.55L349.83-34.55L349.83-34.55Q347.18-34.55 344.45-33.89L344.45-33.89L344.45-33.89Q341.72-33.23 340.00-32.37L340.00-32.37L338.52-31.67L338.52-31.67Q339.53-29.17 339.53-20.28L339.53-20.28L339.53 0L333.68 0L333.68-20.12L333.68-20.12Q333.68-25.90 333.06-28.90L333.06-28.90L333.06-28.90Q332.44-31.90 330.80-33.23L330.80-33.23L330.80-33.23Q329.16-34.55 325.88-34.55L325.88-34.55L325.88-34.55Q323.31-34.55 320.66-33.89L320.66-33.89L320.66-33.89Q318.01-33.23 316.37-32.37L316.37-32.37L315.04-31.67L315.04 0L309.19 0Z" fill="url(#editing-shiny-gradient)"></path></g></g><g filter="url(#editing-shiny2)"><g transform="translate(65.99499988555908, 111.04000163078308)"><path d="M25.35 0.78L25.35 0.78Q17.55 0.78 12.99-2.18L12.99-2.18L12.99-2.18Q8.42-5.15 6.43-11.19L6.43-11.19L6.43-11.19Q4.45-17.24 4.45-26.99L4.45-26.99L4.45-26.99Q4.45-36.66 6.43-42.74L6.43-42.74L6.43-42.74Q8.42-48.83 12.95-51.79L12.95-51.79L12.95-51.79Q17.47-54.76 25.19-54.76L25.19-54.76L25.19-54.76Q32.21-54.76 40.25-53.20L40.25-53.20L42.90-52.73L42.67-47.74L42.67-47.74Q32.99-49.37 25.90-49.37L25.90-49.37L25.90-49.37Q19.97-49.37 16.65-47.15L16.65-47.15L16.65-47.15Q13.34-44.93 12.01-40.13L12.01-40.13L12.01-40.13Q10.69-35.33 10.69-26.99L10.69-26.99L10.69-26.99Q10.69-18.64 12.01-13.85L12.01-13.85L12.01-13.85Q13.34-9.05 16.61-6.79L16.61-6.79L16.61-6.79Q19.89-4.52 25.82-4.52L25.82-4.52L25.82-4.52Q31.04-4.52 36.97-5.62L36.97-5.62L36.97-22.23L28.00-22.23L28.00-27.61L42.90-27.61L42.90-1.09L42.90-1.09Q33.07 0.78 25.35 0.78L25.35 0.78ZM73.87 0.78L73.87 0.78Q65.83 0.78 61.15-2.11L61.15-2.11L61.15-2.11Q56.47-4.99 54.48-10.96L54.48-10.96L54.48-10.96Q52.49-16.93 52.49-26.75L52.49-26.75L52.49-26.75Q52.49-36.50 54.52-42.63L54.52-42.63L54.52-42.63Q56.55-48.75 61.23-51.75L61.23-51.75L61.23-51.75Q65.91-54.76 73.79-54.76L73.79-54.76L73.79-54.76Q81.67-54.76 86.35-51.75L86.35-51.75L86.35-51.75Q91.03-48.75 93.09-42.63L93.09-42.63L93.09-42.63Q95.16-36.50 95.16-26.60L95.16-26.60L95.16-26.60Q95.16-16.69 93.17-10.76L93.17-10.76L93.17-10.76Q91.18-4.84 86.54-2.03L86.54-2.03L86.54-2.03Q81.90 0.78 73.87 0.78L73.87 0.78ZM73.87-4.52L73.87-4.52Q79.79-4.52 83.03-6.71L83.03-6.71L83.03-6.71Q86.27-8.89 87.59-13.61L87.59-13.61L87.59-13.61Q88.92-18.33 88.92-26.60L88.92-26.60L88.92-26.60Q88.92-34.87 87.56-39.78L87.56-39.78L87.56-39.78Q86.19-44.69 82.91-47.07L82.91-47.07L82.91-47.07Q79.64-49.45 73.79-49.45L73.79-49.45L73.79-49.45Q67.94-49.45 64.66-47.11L64.66-47.11L64.66-47.11Q61.39-44.77 60.02-39.86L60.02-39.86L60.02-39.86Q58.66-34.94 58.66-26.75L58.66-26.75L58.66-26.75Q58.66-18.56 59.98-13.77L59.98-13.77L59.98-13.77Q61.31-8.97 64.62-6.75L64.62-6.75L64.62-6.75Q67.94-4.52 73.87-4.52L73.87-4.52ZM117.55 0.86L117.55 0.86Q113.57 0.86 111.34-0.43L111.34-0.43L111.34-0.43Q109.12-1.72 108.15-4.80L108.15-4.80L108.15-4.80Q107.17-7.88 107.17-13.42L107.17-13.42L107.17-33.93L101.63-33.93L101.63-39L107.17-39L107.17-50.93L112.94-50.93L112.94-39L125.35-39L125.35-33.93L112.94-33.93L112.94-15.29L112.94-15.29Q112.94-10.92 113.26-8.78L113.26-8.78L113.26-8.78Q113.57-6.63 114.78-5.50L114.78-5.50L114.78-5.50Q115.99-4.37 118.56-4.37L118.56-4.37L125.50-4.84L125.89 0L125.89 0Q120.35 0.86 117.55 0.86L117.55 0.86ZM132.52 0L132.52-39L138.29-39L138.29-33.70L138.29-33.70Q145.00-38.30 152.57-39.86L152.57-39.86L152.57-33.93L152.57-33.93Q149.53-33.31 145.98-32.02L145.98-32.02L145.98-32.02Q142.43-30.73 140.32-29.64L140.32-29.64L138.37-28.63L138.37 0L132.52 0ZM159.51 0L159.51 0ZM159.51 0L159.51-39L165.28-39L165.28 0L159.51 0ZM159.51-47.81L159.51-54.60L165.28-54.60L165.28-47.81L159.51-47.81ZM176.51 17.32L176.51-39L182.29-39L182.29-36.19L182.29-36.19Q185.33-37.99 188.18-38.88L188.18-38.88L188.18-38.88Q191.02-39.78 194.22-39.78L194.22-39.78L194.22-39.78Q201.47-39.78 204.79-34.98L204.79-34.98L204.79-34.98Q208.10-30.19 208.10-19.73L208.10-19.73L208.10-19.73Q208.10-12.32 206.39-7.84L206.39-7.84L206.39-7.84Q204.67-3.35 200.93-1.29L200.93-1.29L200.93-1.29Q197.18 0.78 190.87 0.78L190.87 0.78L190.87 0.78Q186.50 0.78 182.36-0.08L182.36-0.08L182.36 17.32L176.51 17.32ZM190.94-4.29L190.94-4.29Q197.03-4.29 199.60-7.88L199.60-7.88L199.60-7.88Q202.18-11.47 202.18-19.50L202.18-19.50L202.18-19.50Q202.18-27.46 199.95-31.00L199.95-31.00L199.95-31.00Q197.73-34.55 193.21-34.55L193.21-34.55L193.21-34.55Q190.94-34.55 188.33-33.81L188.33-33.81L188.33-33.81Q185.72-33.07 183.85-32.21L183.85-32.21L182.36-31.43L182.36-5.15L182.36-5.15Q188.14-4.29 190.94-4.29L190.94-4.29ZM217.23 0L217.23-8.89L223.63-8.89L223.63 0L217.23 0ZM248.51 0.78L248.51 0.78Q242.66 0.78 239.23-1.29L239.23-1.29L239.23-1.29Q235.79-3.35 234.31-7.76L234.31-7.76L234.31-7.76Q232.83-12.17 232.83-19.50L232.83-19.50L232.83-19.50Q232.83-28.78 235.95-34.32L235.95-34.32L235.95-34.32Q239.07-39.86 248.04-39.86L248.04-39.86L248.04-39.86Q250.38-39.86 252.88-39.62L252.88-39.62L252.88-39.62Q255.37-39.39 259.66-38.61L259.66-38.61L259.43-33.85L259.43-33.85Q253.27-34.55 249.99-34.55L249.99-34.55L249.99-34.55Q245.54-34.55 243.16-33.19L243.16-33.19L243.16-33.19Q240.79-31.82 239.81-28.59L239.81-28.59L239.81-28.59Q238.84-25.35 238.84-19.34L238.84-19.34L238.84-19.34Q238.84-13.65 239.77-10.49L239.77-10.49L239.77-10.49Q240.71-7.33 243.16-5.89L243.16-5.89L243.16-5.89Q245.62-4.45 250.30-4.45L250.30-4.45L259.51-5.15L259.74-0.31L259.74-0.31Q252.25 0.78 248.51 0.78L248.51 0.78ZM282.98 0.78L282.98 0.78Q276.74 0.78 273.08-1.29L273.08-1.29L273.08-1.29Q269.41-3.35 267.85-7.72L267.85-7.72L267.85-7.72Q266.29-12.09 266.29-19.27L266.29-19.27L266.29-19.27Q266.29-26.68 267.93-31.16L267.93-31.16L267.93-31.16Q269.57-35.65 273.23-37.71L273.23-37.71L273.23-37.71Q276.90-39.78 282.98-39.78L282.98-39.78L282.98-39.78Q289.15-39.78 292.77-37.67L292.77-37.67L292.77-37.67Q296.40-35.57 298.04-31.12L298.04-31.12L298.04-31.12Q299.68-26.68 299.68-19.27L299.68-19.27L299.68-19.27Q299.68-12.09 298.12-7.72L298.12-7.72L298.12-7.72Q296.56-3.35 292.93-1.29L292.93-1.29L292.93-1.29Q289.30 0.78 282.98 0.78L282.98 0.78ZM283.06-4.29L283.06-4.29Q287.35-4.29 289.61-5.73L289.61-5.73L289.61-5.73Q291.88-7.18 292.77-10.34L292.77-10.34L292.77-10.34Q293.67-13.49 293.67-19.27L293.67-19.27L293.67-19.27Q293.67-25.35 292.73-28.63L292.73-28.63L292.73-28.63Q291.80-31.90 289.54-33.31L289.54-33.31L289.54-33.31Q287.27-34.71 283.06-34.71L283.06-34.71L283.06-34.71Q278.85-34.71 276.55-33.31L276.55-33.31L276.55-33.31Q274.25-31.90 273.27-28.63L273.27-28.63L273.27-28.63Q272.30-25.35 272.30-19.27L272.30-19.27L272.30-19.27Q272.30-13.57 273.19-10.37L273.19-10.37L273.19-10.37Q274.09-7.18 276.39-5.73L276.39-5.73L276.39-5.73Q278.69-4.29 283.06-4.29L283.06-4.29ZM309.19 0L309.19-39L314.96-39L314.96-36.27L314.96-36.27Q320.81-39.78 326.66-39.78L326.66-39.78L326.66-39.78Q329.86-39.78 332.44-38.80L332.44-38.80L332.44-38.80Q335.01-37.83 336.49-35.80L336.49-35.80L336.49-35.80Q339.38-37.52 343.28-38.65L343.28-38.65L343.28-38.65Q347.18-39.78 351.23-39.78L351.23-39.78L351.23-39.78Q355.99-39.78 358.64-37.87L358.64-37.87L358.64-37.87Q361.30-35.96 362.43-31.82L362.43-31.82L362.43-31.82Q363.56-27.69 363.56-20.59L363.56-20.59L363.56 0L357.71 0L357.71-20.44L357.71-20.44Q357.71-25.97 357.08-28.94L357.08-28.94L357.08-28.94Q356.46-31.90 354.78-33.23L354.78-33.23L354.78-33.23Q353.11-34.55 349.83-34.55L349.83-34.55L349.83-34.55Q347.18-34.55 344.45-33.89L344.45-33.89L344.45-33.89Q341.72-33.23 340.00-32.37L340.00-32.37L338.52-31.67L338.52-31.67Q339.53-29.17 339.53-20.28L339.53-20.28L339.53 0L333.68 0L333.68-20.12L333.68-20.12Q333.68-25.90 333.06-28.90L333.06-28.90L333.06-28.90Q332.44-31.90 330.80-33.23L330.80-33.23L330.80-33.23Q329.16-34.55 325.88-34.55L325.88-34.55L325.88-34.55Q323.31-34.55 320.66-33.89L320.66-33.89L320.66-33.89Q318.01-33.23 316.37-32.37L316.37-32.37L315.04-31.67L315.04 0L309.19 0Z" fill="url(#editing-shiny-gradient2)"></path></g></g><style>text {
  font-size: 64px;
  font-family: Arial Black;
  dominant-baseline: central;
  text-anchor: middle;
}</style></svg>